<?xml version="1.0" encoding="utf-8"?>
<!-- Generator: Adobe Illustrator 16.0.0, SVG Export Plug-In . SVG Version: 6.00 Build 0)  -->
<!DOCTYPE svg PUBLIC "-//W3C//DTD SVG 1.1//EN" "http://www.w3.org/Graphics/SVG/1.1/DTD/svg11.dtd">
<svg version="1.1" id="Layer_1" xmlns="http://www.w3.org/2000/svg" xmlns:xlink="http://www.w3.org/1999/xlink" x="0px" y="0px"
	 width="229.033px" height="58.52px" viewBox="0 0 229.033 58.52" enable-background="new 0 0 229.033 58.52" xml:space="preserve">
<path fill="#4C4C4D" d="M19.228,44.725c0-4.274-1.466-7.562-4.399-9.858l-6.518-4.73c-4.889-3.417-7.333-8.467-7.333-15.148
	c0-5.557,1.072-9.443,3.218-11.662C6.341,1.11,9.274,0,12.995,0c3.72,0,6.612,1.03,8.678,3.085
	c2.063,2.059,3.312,5.785,3.748,11.182l-6.192,1.363c-0.217-6.84-2.24-10.26-6.07-10.26c-3.829,0-5.744,2.913-5.744,8.736
	c0,2.565,0.286,4.649,0.855,6.251c0.571,1.604,1.67,3.046,3.3,4.329l6.437,4.729c1.519,1.069,2.742,2.084,3.667,3.046
	c0.923,0.961,1.805,2.498,2.647,4.607c0.842,2.112,1.263,4.609,1.263,7.495c0,5.129-1.128,8.736-3.381,10.819
	c-2.254,2.084-5.31,3.127-9.166,3.127c-3.857,0-6.872-1.229-9.044-3.688C1.819,52.366,0.489,47.984,0,41.679l6.111-1.042
	c0.217,4.542,0.882,7.774,1.997,9.698c1.112,1.924,2.674,2.885,4.684,2.885C17.082,53.22,19.228,50.39,19.228,44.725z"/>
<path fill="#4C4C4D" d="M25.243,5.35V0h22.823v5.35h-8.109v53.17h-6.604V5.35H25.243z"/>
<path fill="#4C4C4D" d="M56.927,32.019v21.15h15.546l-1,5.351H50.239V0h20.984v5.35H56.927v21.318h13.042v5.351H56.927z"/>
<path fill="#4C4C4D" d="M96.717,58.52l-2.591-15.215H82.338L79.83,58.52h-6.688L83.843,0h8.861l10.701,58.52H96.717z M88.273,8.443
	l-5.016,29.511h9.948L88.273,8.443z"/>
<path fill="#4C4C4D" d="M104.829,58.52V0h11.37c4.235,0,7.496,1.352,9.781,4.054c2.285,2.704,3.428,7.595,3.428,14.672v21.067
	c0,7.079-1.143,11.97-3.428,14.672c-2.286,2.704-5.546,4.055-9.781,4.055H104.829z M122.803,41.298V17.305
	c0-7.97-2.202-11.955-6.604-11.955h-4.682v47.903h4.682C120.601,53.253,122.803,49.269,122.803,41.298z"/>
<path fill="#4C4C4D" d="M146.217,58.52h-6.521V38.957L128.661,0h6.521l7.775,30.179L150.647,0h6.521l-10.952,38.957V58.52z"/>
<path fill="#58ADD7" d="M186.467,58.52l-6.889-42.552l-6.89,42.552h-6.806L157.168,0h6.64l5.977,44.81L177.088,0h5.146l7.056,44.726
	L195.349,0h6.641l-8.717,58.52H186.467z"/>
<path fill="#58ADD7" d="M205.792,58.52V0h10.293c4.15,0,7.346,1.352,9.586,4.055c2.242,2.704,3.361,7.594,3.361,14.671v0.418
	c0,7.078-1.119,11.955-3.361,14.629c-2.24,2.676-5.436,4.013-9.586,4.013h-3.652V58.52H205.792z M222.476,20.231v-2.592
	c0-8.192-2.131-12.289-6.391-12.289h-3.652V32.52h3.652C220.345,32.52,222.476,28.424,222.476,20.231z"/>
<rect x="197.354" fill="#58ADD7" width="19.176" height="5.344"/>
</svg>
